<svg xmlns="http://www.w3.org/2000/svg" viewBox="0 0 24 24"><path fill="#2062AF" d="M20.667 21.666 12 24l-8.667-2.334L1.333 0h21.333l-1.999 21.666z"/><path fill="#3C9CD7" d="M12 1.755v20.384l.02.005 7.013-1.889 1.619-18.501L12 1.755z"/><path fill="#FFF" d="M11.992 7.172 5.789 9.756l.206 2.558 5.997-2.564 6.38-2.728.264-2.616-6.644 2.766z"/><linearGradient id="a" x1="-1227.603" x2="-1227.603" y1="-1146.988" y2="-1148.095" gradientTransform="translate(5707.182 5336.404) scale(4.6418)" gradientUnits="userSpaceOnUse"><stop offset=".387" stop-color="#d1d3d4" stop-opacity="0"/><stop offset="1" stop-color="#d1d3d4"/></linearGradient><path fill="url(#a)" d="m5.789 9.756.206 2.558 5.997-2.564V7.172L5.789 9.756z"/><linearGradient id="b" x1="-1226.219" x2="-1226.219" y1="-1147.54" y2="-1148.691" gradientTransform="translate(5707.182 5336.404) scale(4.6418)" gradientUnits="userSpaceOnUse"><stop offset=".387" stop-color="#d1d3d4" stop-opacity="0"/><stop offset="1" stop-color="#d1d3d4"/></linearGradient><path fill="url(#b)" d="m18.636 4.405-6.644 2.767v2.577l6.38-2.728.264-2.616z"/><linearGradient id="c" x1="-1228.269" x2="-1225.609" y1="-1146.494" y2="-1146.494" gradientTransform="translate(5707.182 5336.404) scale(4.6418)" gradientUnits="userSpaceOnUse"><stop offset="0" stop-color="#e8e7e5"/><stop offset="1" stop-color="#fff"/></linearGradient><path fill="url(#c)" d="m5.799 9.756.206 2.558 9.202.029-.206 3.41-3.028.852-2.911-.735-.176-2.117H6.181l.353 4.086 5.468 1.617 5.439-1.588.706-8.114H5.799z"/><path d="M11.992 9.756H5.789l.206 2.558 5.997.019V9.756zm0 6.841-.029.008-2.91-.735-.176-2.117H6.171l.353 4.086 5.468 1.617v-2.859z" opacity=".05"/><linearGradient id="d" x1="-1228.392" x2="-1225.504" y1="-1148.41" y2="-1148.41" gradientTransform="translate(5707.182 5336.404) scale(4.6418)" gradientUnits="userSpaceOnUse"><stop offset="0" stop-color="#e8e7e5"/><stop offset="1" stop-color="#fff"/></linearGradient><path fill="url(#d)" d="M5.231 4.405h13.406l-.264 2.616H5.554l-.323-2.616z"/><path d="M11.992 4.405H5.231l.323 2.616h6.438V4.405z" opacity=".05"/></svg>