<svg xmlns="http://www.w3.org/2000/svg" data-name="Layer 1" viewBox="0 0 64 64"><path fill="#93a8a9" d="M41,49.71A1,1,0,0,0,40,49H24a1,1,0,0,0-1,.71l-3,10H44Z"/><path fill="#d5e1dd" d="M4.93,51A3.15,3.15,0,0,1,2,47.67V6.33A3.15,3.15,0,0,1,4.93,3H59.07A3.15,3.15,0,0,1,62,6.33v41.2A3.54,3.54,0,0,1,58.38,51Z"/><path fill="#31464f" d="M62,39v8a3.82,3.82,0,0,1-3.62,4H4.94C3.31,51,2,49.28,2,47.16V39Z"/><rect width="40" height="2" x="12" y="59" fill="#4c5870"/><circle cx="32" cy="45" r="3" fill="#7acfd6"/><path fill="#31464f" d="M23,13.5h-.76a.49.49,0,0,1-.46-.31.48.48,0,0,1,.11-.54l.53-.54a1,1,0,0,0,0-1.41L20.3,8.58a1,1,0,0,0-1.41,0l-.54.53a.48.48,0,0,1-.54.11.49.49,0,0,1-.31-.46V8a1,1,0,0,0-1-1h-3a1,1,0,0,0-1,1v.76a.49.49,0,0,1-.31.46.48.48,0,0,1-.54-.11l-.54-.53a1,1,0,0,0-1.41,0L7.58,10.7a1,1,0,0,0,0,1.41l.53.54a.48.48,0,0,1,.11.54.49.49,0,0,1-.46.31H7a1,1,0,0,0-1,1v3a1,1,0,0,0,1,1h.76a.49.49,0,0,1,.46.31.48.48,0,0,1-.11.54l-.53.54a1,1,0,0,0-.3.71,1,1,0,0,0,.3.7L9.7,23.42a1,1,0,0,0,1.41,0l.54-.53a.48.48,0,0,1,.54-.11.49.49,0,0,1,.31.46V24a1,1,0,0,0,1,1h3a1,1,0,0,0,1-1v-.76a.49.49,0,0,1,.31-.46.46.46,0,0,1,.54.11l.54.53a1,1,0,0,0,1.41,0l2.12-2.12a1,1,0,0,0,.3-.7,1,1,0,0,0-.3-.71l-.53-.54a.48.48,0,0,1-.11-.54.49.49,0,0,1,.46-.31H23a1,1,0,0,0,1-1v-3A1,1,0,0,0,23,13.5Z"/><circle cx="15" cy="16" r="4" fill="#7ca2a1"/><rect width="18" height="12" x="40" y="25" fill="#ed8a3f" rx="1"/><rect width="24" height="2" x="30" y="13" fill="#005995"/><rect width="30" height="2" x="26" y="17" fill="#005995"/><rect width="20" height="2" x="16" y="29" fill="#003a6f"/><rect width="28" height="2" x="10" y="33" fill="#003a6f"/></svg>