<svg xmlns="http://www.w3.org/2000/svg" data-name="Layer 1" viewBox="0 0 64 64"><path d="M30.6,38.44a2,2,0,0,0,2.79,0l7-6.83a2,2,0,1,0-2.79-2.86L34,32.26V17a2,2,0,0,0-4,0V32.26l-3.6-3.51a2,2,0,0,0-2.79,2.86Z"/><path d="M43.24,36.27a2,2,0,0,0-2,2v2A2.74,2.74,0,0,1,38.5,43h-13a2.74,2.74,0,0,1-2.74-2.74v-2a2,2,0,0,0-4,0v2A6.75,6.75,0,0,0,25.5,47h13a6.75,6.75,0,0,0,6.74-6.74v-2A2,2,0,0,0,43.24,36.27Z"/><path d="M32,3A29,29,0,1,0,61,32,29,29,0,0,0,32,3Zm0,54A25,25,0,1,1,57,32,25,25,0,0,1,32,57Z"/></svg>