<svg xmlns="http://www.w3.org/2000/svg" enable-background="new 0 0 24 24" viewBox="0 0 24 24"><polygon fill="gray" points="21.844 17.578 21.759 6.375 11.958 .75 2.156 6.375 2.156 17.625 11.958 23.25"/><polygon fill="#FFF" points="19.786 13.072 16.656 14.814 16.656 18.102 12.939 20.25 12.939 12.51 19.786 8.62"/><polygon fill="#FFF" points="11.025 20.19 7.347 18.064 7.347 14.808 4.25 13.085 4.25 8.681 11.025 12.53"/><polygon fill="#FFF" points="5.132 6.865 5.131 6.864 8.777 4.762 11.974 6.596 15.152 4.784 18.759 6.831 11.938 10.726"/><path d="M11.958,24c-0.13,0-0.26-0.034-0.376-0.101l-9.708-5.625C1.643,18.14,1.5,17.893,1.5,17.625V6.375c0-0.268,0.143-0.515,0.374-0.649l9.708-5.625c0.232-0.134,0.518-0.134,0.75-0.001l9.792,5.625c0.232,0.134,0.376,0.382,0.376,0.65v11.203c0,0.268-0.143,0.515-0.374,0.649l-9.792,5.672C12.218,23.966,12.088,24,11.958,24z M3,17.193l8.958,5.19L21,17.146V6.809l-9.04-5.193L3,6.807V17.193z M21.75,17.578h0.01H21.75z"/><path d="M12.975 21c-.129 0-.258-.033-.373-.1-.233-.134-.377-.382-.377-.65v-7.74c0-.269.144-.517.377-.65l6.775-3.89c.231-.133.518-.133.749.001C20.357 8.105 20.5 8.353 20.5 8.62v4.452c0 .271-.146.521-.383.654l-2.715 1.526v2.849c0 .267-.142.513-.372.647l-3.678 2.148C13.236 20.966 13.105 21 12.975 21zM13.725 12.944v6l2.178-1.272v-2.857c0-.271.146-.521.383-.654L19 12.633V9.916L13.725 12.944zM19.75 13.072h.01H19.75zM11.025 21c-.131 0-.262-.034-.378-.103L6.97 18.749c-.23-.134-.372-.381-.372-.647V15.25l-2.715-1.525C3.646 13.592 3.5 13.342 3.5 13.071V8.62c0-.268.143-.515.374-.649S4.392 7.836 4.623 7.97l6.775 3.89c.233.134.377.382.377.65v7.74c0 .269-.144.517-.377.65C11.283 20.967 11.154 21 11.025 21zM8.098 17.671l2.178 1.272v-6L5 9.916v2.717l2.715 1.525c.236.133.383.383.383.654V17.671zM11.981 11.489c-.129 0-.258-.033-.373-.1L4.846 7.511C4.613 7.378 4.47 7.131 4.469 6.863c-.001-.268.141-.516.372-.65l3.622-2.111c.233-.135.521-.136.754-.001l2.802 1.624L14.8 4.122c.232-.134.518-.133.748 0l3.584 2.056c.232.133.377.381.377.649 0 .268-.143.517-.375.65l-6.777 3.912C12.24 11.455 12.111 11.489 11.981 11.489zM6.717 6.855l5.264 3.019 5.274-3.044-2.079-1.192-2.783 1.604c-.233.134-.52.133-.751-.001l-2.8-1.623L6.717 6.855z"/></svg>