<svg xmlns="http://www.w3.org/2000/svg" width="36" height="36"><path fill="#373748" style="line-height:normal;text-indent:0;text-align:start;text-decoration-line:none;text-decoration-style:solid;text-decoration-color:#000;text-transform:none;block-progression:tb;isolation:auto;mix-blend-mode:normal" d="M21.791 1016.389a.5.5 0 0 0-.475.357.5.5 0 0 0-.003.014l-1.53 3.703c-1.049 0-2.53-.01-3.625-.01l-1.55-3.722a.5.5 0 0 0-.655-.27l-5.836 2.43a.5.5 0 0 0-.27.652l1.55 3.72c-.835.836-1.678 1.687-2.538 2.548l-3.726-1.536a.5.5 0 0 0-.653.272l-2.421 5.871a.5.5 0 0 0 .273.652l3.725 1.537c0 1.034.005 2.508.006 3.594l-3.721 1.55a.5.5 0 0 0-.27.651l2.428 5.838a.5.5 0 0 0 .654.27l3.723-1.55c.854.852 1.71 1.69 2.576 2.554l-1.535 3.724a.5.5 0 0 0 .271.653l5.838 2.406a.5.5 0 0 0 .653-.272l1.537-3.724 3.594-.01 1.548 3.723a.5.5 0 0 0 .655.269l5.836-2.43a.5.5 0 0 0 .27-.654l-1.55-3.723c.855-.855 1.686-1.69 2.54-2.545l3.757 1.551a.5.5 0 0 0 .653-.271l2.421-5.871a.5.5 0 0 0-.273-.653l-3.758-1.55c0-1.047-.005-2.521-.006-3.594l3.723-1.55a.5.5 0 0 0 .27-.653l-2.43-5.836a.5.5 0 0 0-.655-.27l-3.718 1.549c-.832-.851-1.678-1.675-2.547-2.54l1.549-3.757a.5.5 0 0 0-.272-.652l-5.838-2.406a.5.5 0 0 0-.195-.04zm.28 1.154 4.91 2.025-1.487 3.604a.5.5 0 0 0 .11.545c1.048 1.048 2.045 2.002 3.011 3.004a.5.5 0 0 0 .553.113l3.568-1.484 2.045 4.912-3.568 1.486a.5.5 0 0 0-.309.461c0 1.155.006 3.156.006 4.264a.5.5 0 0 0 .31.46l3.606 1.487-2.04 4.947-3.604-1.486a.5.5 0 0 0-.545.11c-1.02 1.02-1.992 1.999-3.01 3.017a.5.5 0 0 0-.107.547l1.484 3.568-4.914 2.045-1.484-3.568a.5.5 0 0 0-.463-.309l-4.262.01a.5.5 0 0 0-.461.309l-1.473 3.572-4.914-2.026 1.473-3.572a.5.5 0 0 0-.11-.543c-1.034-1.035-2.045-2.018-3.05-3.023a.5.5 0 0 0-.547-.11l-3.567 1.485-2.044-4.912 3.568-1.485a.5.5 0 0 0 .306-.463c0-1.173-.005-3.173-.005-4.261a.5.5 0 0 0-.31-.463l-3.573-1.473 2.039-4.945 3.572 1.472a.5.5 0 0 0 .545-.11c1.024-1.023 2.024-2.033 3.01-3.019a.5.5 0 0 0 .107-.545l-1.484-3.568 4.914-2.045 1.484 3.568a.5.5 0 0 0 .461.31c1.174 0 3.176.01 4.297.01a.5.5 0 0 0 .461-.31l1.49-3.61z" color="#000" font-family="sans-serif" font-weight="400" overflow="visible" transform="translate(0 -1016.362)"/><path fill="#f05542" style="line-height:normal;text-indent:0;text-align:start;text-decoration-line:none;text-decoration-style:solid;text-decoration-color:#000;text-transform:none;block-progression:tb;isolation:auto;mix-blend-mode:normal" d="m20.203 1020.39-4.832.075a.5.5 0 0 0-.492.507l.045 3.008c-.83.247-1.625.59-2.373 1.026l-2.158-2.094a.5.5 0 0 0-.707.01l-3.381 3.484a.5.5 0 0 0 .011.707l2.16 2.094a10.873 10.873 0 0 0-.953 2.406l-3.007.045a.5.5 0 0 0-.493.506l.073 4.832a.5.5 0 0 0 .508.492l3.011-.045c.25.838.599 1.64 1.041 2.393l-2.094 2.158a.5.5 0 0 0 .012.707l3.465 3.362a.5.5 0 0 0 .707-.012l2.094-2.159c.762.413 1.566.73 2.404.952l.045 3.01a.5.5 0 0 0 .508.491l4.832-.074a.5.5 0 0 0 .492-.507l-.045-3.01a10.882 10.882 0 0 0 2.371-1.024l2.18 2.114a.5.5 0 0 0 .707-.012l3.38-3.485a.5.5 0 0 0-.01-.707l-2.18-2.113c.412-.762.732-1.566.953-2.404l3.007-.045a.5.5 0 0 0 .493-.508l-.073-4.832a.5.5 0 0 0-.508-.492l-3.01.045a10.87 10.87 0 0 0-1.025-2.371l2.114-2.18a.5.5 0 0 0-.01-.707L26 1022.672a.5.5 0 0 0-.707.012.5.5 0 0 0-.012.012l-2.101 2.166a10.87 10.87 0 0 0-2.424-.969l-.045-3.01a.5.5 0 0 0-.508-.492zm-.484 1.008.043 2.836a.5.5 0 0 0 .39.48c1.023.231 2 .623 2.9 1.161a.5.5 0 0 0 .618-.082l1.992-2.053 2.746 2.664-1.992 2.053a.5.5 0 0 0-.062.617 9.9 9.9 0 0 1 1.23 2.848.5.5 0 0 0 .49.375l2.838-.043.057 3.832-2.836.043a.5.5 0 0 0-.48.39 9.9 9.9 0 0 1-1.141 2.885.5.5 0 0 0 .082.614l2.054 1.992-2.683 2.767-2.055-1.994a.5.5 0 0 0-.617-.062 9.891 9.891 0 0 1-2.846 1.23.5.5 0 0 0-.377.493l.043 2.836-3.832.059-.043-2.836a.5.5 0 0 0-.39-.48 9.905 9.905 0 0 1-2.885-1.143.5.5 0 0 0-.613.082l-1.975 2.035-2.746-2.664 1.975-2.035a.5.5 0 0 0 .062-.62 9.9 9.9 0 0 1-1.25-2.865.5.5 0 0 0-.49-.375l-2.838.043-.057-3.83 2.836-.045a.5.5 0 0 0 .48-.39 9.888 9.888 0 0 1 1.141-2.883.5.5 0 0 0-.082-.613l-2.035-1.975 2.684-2.768 2.035 1.975a.5.5 0 0 0 .617.064 9.888 9.888 0 0 1 2.846-1.23.5.5 0 0 0 .377-.493l-.043-2.836 3.832-.059zm-1.819 5.762a7.16 7.16 0 0 0-5.068 2.176c-2.768 2.854-2.697 7.449.156 10.217 2.854 2.768 7.431 2.678 10.198-.174a7.2 7.2 0 0 0-.155-10.178 7.222 7.222 0 0 0-5.13-2.04zm.014.994a6.22 6.22 0 0 1 4.42 1.764 6.186 6.186 0 0 1 .135 8.766c-2.391 2.464-6.322 2.541-8.785.152a6.234 6.234 0 0 1-.133-8.803 6.163 6.163 0 0 1 4.363-1.879z" color="#000" font-family="sans-serif" font-weight="400" overflow="visible" transform="translate(0 -1016.362)"/><path fill="none" stroke="#373748" stroke-linecap="round" stroke-linejoin="round" d="M17.776 14.808c-.693 0-1.251.559-1.251 1.252v1.225c0 .693.713 1.25 1.25 1.25.538 0 1.252-.557 1.252-1.25V16.06c0-.693-.558-1.252-1.251-1.252zm-3.603 5.898v-.305c0-.294.228-.555.49-.685 1.076-.588 2.289-1.188 2.289-1.188l.278-.138c.164.06.323.139.553.146.262-.02.384-.1.57-.154l.257.125c.098.066 1.044.49 2.447 1.273.261.163.36.424.36.75v.195"/></svg>